<mxfile host="app.diagrams.net" modified="2023-11-06T10:19:33.742Z" agent="Mozilla/5.0 (Macintosh; Intel Mac OS X 10_15_7) AppleWebKit/537.36 (KHTML, like Gecko) Chrome/118.0.0.0 Safari/537.36" etag="o563EH-6PYinJSIOn3PJ" version="22.0.8" type="github">
  <diagram name="Page-1" id="VsmWE-DmiUkpjAb7zMRD">
    <mxGraphModel dx="1026" dy="654" grid="1" gridSize="10" guides="1" tooltips="1" connect="1" arrows="1" fold="1" page="1" pageScale="1" pageWidth="827" pageHeight="1169" math="0" shadow="0">
      <root>
        <mxCell id="0" />
        <mxCell id="1" parent="0" />
        <mxCell id="jl_IBWY0WhHe96FOX9Ji-1" value="" style="outlineConnect=0;dashed=0;verticalLabelPosition=bottom;verticalAlign=top;align=center;html=1;shape=mxgraph.aws3.ec2;fillColor=#F58534;gradientColor=none;" parent="1" vertex="1">
          <mxGeometry x="380" y="200" width="76.5" height="93" as="geometry" />
        </mxCell>
        <mxCell id="aLV7nFI_5ERvQfm9b1BL-1" value="EC2" style="text;html=1;strokeColor=none;fillColor=none;align=center;verticalAlign=middle;whiteSpace=wrap;rounded=0;" parent="1" vertex="1">
          <mxGeometry x="388.25" y="320" width="60" height="30" as="geometry" />
        </mxCell>
        <mxCell id="aLV7nFI_5ERvQfm9b1BL-2" value="" style="sketch=0;points=[[0,0,0],[0.25,0,0],[0.5,0,0],[0.75,0,0],[1,0,0],[0,1,0],[0.25,1,0],[0.5,1,0],[0.75,1,0],[1,1,0],[0,0.25,0],[0,0.5,0],[0,0.75,0],[1,0.25,0],[1,0.5,0],[1,0.75,0]];outlineConnect=0;fontColor=#232F3E;fillColor=#7AA116;strokeColor=#ffffff;dashed=0;verticalLabelPosition=bottom;verticalAlign=top;align=center;html=1;fontSize=12;fontStyle=0;aspect=fixed;shape=mxgraph.aws4.resourceIcon;resIcon=mxgraph.aws4.s3;" parent="1" vertex="1">
          <mxGeometry x="570" y="80" width="78" height="78" as="geometry" />
        </mxCell>
        <mxCell id="aLV7nFI_5ERvQfm9b1BL-3" value="" style="outlineConnect=0;dashed=0;verticalLabelPosition=bottom;verticalAlign=top;align=center;html=1;shape=mxgraph.aws3.route_53;fillColor=#F58536;gradientColor=none;" parent="1" vertex="1">
          <mxGeometry x="200" y="207.5" width="70.5" height="85.5" as="geometry" />
        </mxCell>
        <mxCell id="aLV7nFI_5ERvQfm9b1BL-4" value="Route 53&lt;br&gt;" style="text;html=1;strokeColor=none;fillColor=none;align=center;verticalAlign=middle;whiteSpace=wrap;rounded=0;" parent="1" vertex="1">
          <mxGeometry x="205.25" y="320" width="60" height="30" as="geometry" />
        </mxCell>
        <mxCell id="aLV7nFI_5ERvQfm9b1BL-8" value="" style="points=[[0.35,0,0],[0.98,0.51,0],[1,0.71,0],[0.67,1,0],[0,0.795,0],[0,0.65,0]];verticalLabelPosition=bottom;sketch=0;html=1;verticalAlign=top;aspect=fixed;align=center;pointerEvents=1;shape=mxgraph.cisco19.user;fillColor=#005073;strokeColor=none;" parent="1" vertex="1">
          <mxGeometry x="50" y="230" width="50" height="50" as="geometry" />
        </mxCell>
        <mxCell id="aLV7nFI_5ERvQfm9b1BL-9" value="Amazon RDS" style="sketch=0;outlineConnect=0;fontColor=#232F3E;gradientColor=none;strokeColor=#ffffff;fillColor=#232F3E;dashed=0;verticalLabelPosition=middle;verticalAlign=bottom;align=center;html=1;whiteSpace=wrap;fontSize=10;fontStyle=1;spacing=3;shape=mxgraph.aws4.productIcon;prIcon=mxgraph.aws4.rds;" parent="1" vertex="1">
          <mxGeometry x="570" y="205" width="80" height="100" as="geometry" />
        </mxCell>
        <mxCell id="aLV7nFI_5ERvQfm9b1BL-14" value="" style="html=1;shadow=0;dashed=0;align=center;verticalAlign=middle;shape=mxgraph.arrows2.arrow;dy=0.67;dx=20;notch=0;" parent="1" vertex="1">
          <mxGeometry x="105.25" y="233" width="100" height="60" as="geometry" />
        </mxCell>
        <mxCell id="aLV7nFI_5ERvQfm9b1BL-15" value="" style="html=1;shadow=0;dashed=0;align=center;verticalAlign=middle;shape=mxgraph.arrows2.arrow;dy=0.67;dx=20;notch=0;" parent="1" vertex="1">
          <mxGeometry x="280" y="225" width="100" height="60" as="geometry" />
        </mxCell>
        <mxCell id="aLV7nFI_5ERvQfm9b1BL-24" value="" style="html=1;shadow=0;dashed=0;align=center;verticalAlign=middle;shape=mxgraph.arrows2.arrow;dy=0.67;dx=20;notch=0;" parent="1" vertex="1">
          <mxGeometry x="470" y="220.25" width="100" height="60" as="geometry" />
        </mxCell>
        <mxCell id="aLV7nFI_5ERvQfm9b1BL-26" value="" style="html=1;shadow=0;dashed=0;align=center;verticalAlign=middle;shape=mxgraph.arrows2.bendArrow;dy=15;dx=38;notch=0;arrowHead=55;rounded=1;" parent="1" vertex="1">
          <mxGeometry x="410" y="100" width="100" height="100" as="geometry" />
        </mxCell>
        <mxCell id="aLV7nFI_5ERvQfm9b1BL-27" value="" style="outlineConnect=0;dashed=0;verticalLabelPosition=bottom;verticalAlign=top;align=center;html=1;shape=mxgraph.aws3.iam;fillColor=#759C3E;gradientColor=none;" parent="1" vertex="1">
          <mxGeometry x="397.25" y="380" width="42" height="81" as="geometry" />
        </mxCell>
        <mxCell id="aLV7nFI_5ERvQfm9b1BL-29" value="IAM" style="text;html=1;strokeColor=none;fillColor=none;align=center;verticalAlign=middle;whiteSpace=wrap;rounded=0;" parent="1" vertex="1">
          <mxGeometry x="388.25" y="490" width="60" height="30" as="geometry" />
        </mxCell>
      </root>
    </mxGraphModel>
  </diagram>
</mxfile>
